<svg width="352" height="352" viewBox="0 0 352 352" fill="none" xmlns="http://www.w3.org/2000/svg">
<circle cx="289" cy="61" r="33" stroke="#00B8E6" stroke-width="26"/>
<circle cx="176" cy="176" r="52" stroke="url(#paint0_linear_296_523)" stroke-width="26"/>
<circle cx="60" cy="293" r="33" stroke="#6454B7" stroke-width="26"/>
<path d="M37.5073 262C21.9729 237.037 13 207.566 13 176C13 85.9776 85.9776 13 176 13C187.66 13 199.034 14.2242 210 16.5512" stroke="url(#paint1_linear_296_523)" stroke-width="26" stroke-linecap="round"/>
<path d="M314.18 89.5C329.907 114.569 339 144.223 339 176C339 266.022 266.022 339 176 339C163.452 339 151.234 337.582 139.5 334.898" stroke="url(#paint2_linear_296_523)" stroke-width="26" stroke-linecap="round"/>
<defs>
<linearGradient id="paint0_linear_296_523" x1="176" y1="124" x2="176" y2="228" gradientUnits="userSpaceOnUse">
<stop stop-color="#00B8E6"/>
<stop offset="1" stop-color="#6751B6"/>
</linearGradient>
<linearGradient id="paint1_linear_296_523" x1="111.5" y1="13" x2="111.5" y2="262" gradientUnits="userSpaceOnUse">
<stop stop-color="#00B8E6"/>
<stop offset="1" stop-color="#6751B6"/>
</linearGradient>
<linearGradient id="paint2_linear_296_523" x1="239.25" y1="89.5" x2="239.25" y2="339" gradientUnits="userSpaceOnUse">
<stop stop-color="#00B8E6"/>
<stop offset="1" stop-color="#6751B6"/>
</linearGradient>
</defs>
</svg>
